<svg version="1.1" xmlns="http://www.w3.org/2000/svg" xmlns:xlink="http://www.w3.org/1999/xlink" width="73.18999481201172" height="49.84000015258789"><defs></defs><g transform="translate(-41.48625183105469,36.52812576293945)"><rect fill="rgb(255,255,255)" stroke="none" x="0" y="0" width="73.18999481201172" height="49.84000015258789" fill-opacity="0" transform="translate(41.48625183105469,-36.52812576293945)"></rect><g transform="translate(37.90625,24.921875) rotate(0,0,0) translate(-37.90625,-24.921875) matrix(1,0,0,1,37.90625,24.921875)"><path fill="rgb(41,41,41)" fill-opacity="1" d="M34.11-26.14L34.73-26.02Q34.58-25.14 34.17-23.72Q33.77-22.30 33.02-20.70Q32.27-19.11 31.13-17.48Q29.98-15.86 28.38-14.56Q26.77-13.27 24.61-12.44Q22.45-11.61 19.70-11.61L19.70-11.61Q16.58-11.61 13.67-13.11Q10.77-14.61 8.52-17.42Q6.27-20.23 4.92-24.31Q3.58-28.39 3.58-33.55L3.58-33.55Q3.58-37.20 4.23-40.70Q4.89-44.20 6.13-47.30Q7.36-50.39 9.13-53Q10.89-55.61 13.14-57.48Q15.39-59.36 18.08-60.41Q20.77-61.45 23.80-61.45L23.80-61.45Q26.08-61.45 27.89-60.77Q29.70-60.08 30.97-58.89Q32.23-57.70 32.91-56.09Q33.58-54.48 33.58-52.64L33.58-52.64Q33.58-51.42 33.22-50.25Q32.86-49.08 32.36-48.06Q31.86-47.05 31.31-46.22Q30.77-45.39 30.39-44.89L30.39-44.89L30.02-45.20Q30.39-45.70 30.72-46.38Q31.05-47.05 31.30-47.83Q31.55-48.61 31.70-49.47Q31.86-50.33 31.86-51.23L31.86-51.23Q31.86-52.89 31.28-54.36Q30.70-55.83 29.61-56.94Q28.52-58.05 26.94-58.70Q25.36-59.36 23.36-59.36L23.36-59.36Q20.36-59.36 17.84-58.47Q15.33-57.58 13.33-55.97Q11.33-54.36 9.81-52.13Q8.30-49.89 7.30-47.20Q6.30-44.52 5.80-41.48Q5.30-38.45 5.30-35.23L5.30-35.23Q5.30-32.70 5.72-30.13Q6.14-27.55 6.98-25.14Q7.83-22.73 9.09-20.63Q10.36-18.52 12.03-16.95Q13.70-15.39 15.81-14.48Q17.92-13.58 20.42-13.58L20.42-13.58Q23.73-13.58 26.11-14.75Q28.48-15.92 30.11-17.75Q31.73-19.58 32.69-21.80Q33.64-24.02 34.11-26.14L34.11-26.14ZM38.08-27.42L38.08-27.42Q38.33-27.42 38.56-27.28Q38.80-27.14 38.97-26.98Q39.14-26.83 39.25-26.66Q39.36-26.48 39.36-26.45L39.36-26.45Q39.36-26.42 39.28-26.13Q39.20-25.83 39.09-25.14Q38.98-24.45 38.91-23.34Q38.83-22.23 38.83-20.58L38.83-20.58Q38.83-18.36 39.38-17.48Q39.92-16.61 40.70-16.61L40.70-16.61Q41.48-16.61 42.25-17.08Q43.02-17.55 43.70-18.30Q44.39-19.05 45-20Q45.61-20.95 46.08-21.92L46.08-21.92L46.27-21.80Q46.14-21.48 45.89-20.84Q45.64-20.20 45.27-19.45Q44.89-18.70 44.38-17.91Q43.86-17.11 43.19-16.47Q42.52-15.83 41.72-15.41Q40.92-14.98 39.98-14.98L39.98-14.98Q39.33-14.98 38.78-15.23Q38.23-15.48 37.81-16.16Q37.39-16.83 37.16-18.02Q36.92-19.20 36.92-21.08L36.92-21.08Q36.92-22.05 37-23.16Q37.08-24.27 37.22-25.22Q37.36-26.17 37.58-26.80Q37.80-27.42 38.08-27.42ZM38.83-35.17L38.83-35.17Q39.61-35.17 39.95-34.63Q40.30-34.08 40.30-33.30L40.30-33.30Q40.30-32.39 39.80-31.89Q39.30-31.39 38.58-31.39L38.58-31.39Q38.05-31.39 37.55-31.80Q37.05-32.20 37.05-33.11L37.05-33.11Q37.05-34.11 37.55-34.64Q38.05-35.17 38.83-35.17ZM51.05-27.61L51.05-27.61Q51.83-27.61 52.30-27.28Q52.77-26.95 53-26.50Q53.23-26.05 53.30-25.58Q53.36-25.11 53.36-24.80L53.36-24.80Q53.36-24.42 53.27-23.61Q53.17-22.80 53.08-21.92Q52.98-21.05 52.89-20.30Q52.80-19.55 52.80-19.30L52.80-19.30Q52.80-18.67 52.89-18.16Q52.98-17.64 53.23-17.23Q53.48-16.83 53.92-16.61Q54.36-16.39 55.08-16.39L55.08-16.39Q56.39-16.39 57.83-17.70Q59.27-19.02 60.52-21.33L60.52-21.33L60.70-21.20Q60.36-20.05 59.64-18.84Q58.92-17.64 57.98-16.64Q57.05-15.64 55.98-15Q54.92-14.36 53.92-14.36L53.92-14.36Q53.08-14.36 52.56-14.72Q52.05-15.08 51.77-15.63Q51.48-16.17 51.39-16.81Q51.30-17.45 51.30-18.02L51.30-18.02Q51.30-18.70 51.42-19.63Q51.55-20.55 51.69-21.47Q51.83-22.39 51.95-23.20Q52.08-24.02 52.08-24.48L52.08-24.48Q52.08-24.89 51.94-25.14Q51.80-25.39 51.58-25.53Q51.36-25.67 51.14-25.70Q50.92-25.73 50.80-25.73L50.80-25.73Q50.45-25.73 49.91-25.64Q49.36-25.55 48.36-25.55L48.36-25.55Q48.08-25.55 47.80-25.58Q47.52-25.61 47.20-25.67L47.20-25.67Q47.11-24.45 46.81-23.30Q46.52-22.14 46.16-21.17Q45.80-20.20 45.42-19.50Q45.05-18.80 44.80-18.52L44.80-18.52Q44.39-18.52 44.39-18.89L44.39-18.89Q44.42-19.08 44.72-19.66Q45.02-20.23 45.38-21.14Q45.73-22.05 46.06-23.30Q46.39-24.55 46.45-26.08L46.45-26.08Q44.98-26.92 44.98-29.08L44.98-29.08Q44.98-29.67 45.22-30.08Q45.45-30.48 45.92-30.48L45.92-30.48Q46.61-30.48 46.91-29.69Q47.20-28.89 47.27-27.55L47.27-27.55Q47.48-27.48 47.69-27.45Q47.89-27.42 48.17-27.42L48.17-27.42Q48.98-27.42 49.69-27.52Q50.39-27.61 51.05-27.61ZM46.27-28.36L46.27-28.36Q46.27-28.23 46.39-28.11L46.39-28.11Q46.36-28.27 46.34-28.42Q46.33-28.58 46.30-28.67L46.30-28.67Q46.27-28.80 46.27-28.89L46.27-28.89Q46.17-28.89 46.11-28.80Q46.05-28.70 46.27-28.36ZM70.39-25.23L70.39-25.23Q70.11-25.23 69.88-25.56Q69.64-25.89 69.27-26.27Q68.89-26.64 68.31-26.97Q67.73-27.30 66.80-27.30L66.80-27.30Q65.48-27.30 64.36-26.63Q63.23-25.95 62.42-24.94Q61.61-23.92 61.16-22.72Q60.70-21.52 60.70-20.45L60.70-20.45Q60.70-18.80 61.55-17.73Q62.39-16.67 63.80-16.67L63.80-16.67Q64.89-16.67 65.72-17.09Q66.55-17.52 67.11-18.20L67.11-18.20Q66.92-19.05 66.92-20.30L66.92-20.30Q66.92-21.64 67.13-22.48Q67.33-23.33 67.63-23.80Q67.92-24.27 68.23-24.44Q68.55-24.61 68.77-24.61L68.77-24.61Q69.02-24.61 69.34-24.27Q69.67-23.92 69.67-23.05L69.67-23.05Q69.67-21.95 69.28-20.75Q68.89-19.55 68.20-18.45L68.20-18.45Q68.58-17.48 69.36-17.05Q70.14-16.61 71.14-16.61L71.14-16.61Q72.02-16.61 72.78-17Q73.55-17.39 74.22-18.05Q74.89-18.70 75.48-19.56Q76.08-20.42 76.58-21.33L76.58-21.33L76.77-21.20Q76.39-20.02 75.77-18.89Q75.14-17.77 74.33-16.89Q73.52-16.02 72.56-15.50Q71.61-14.98 70.58-14.98L70.58-14.98Q69.80-14.98 68.88-15.50Q67.95-16.02 67.36-17.36L67.36-17.36Q66.39-16.20 65.14-15.44Q63.89-14.67 62.45-14.67L62.45-14.67Q61.64-14.67 60.98-15.05Q60.33-15.42 59.88-16.05Q59.42-16.67 59.17-17.52Q58.92-18.36 58.92-19.30L58.92-19.30Q58.92-20.89 59.63-22.48Q60.33-24.08 61.50-25.36Q62.67-26.64 64.19-27.44Q65.70-28.23 67.36-28.23L67.36-28.23Q68.58-28.23 69.41-27.97Q70.23-27.70 70.73-27.34Q71.23-26.98 71.45-26.61Q71.67-26.23 71.67-26.02L71.67-26.02Q71.67-25.58 71.22-25.41Q70.77-25.23 70.39-25.23ZM67.77-21.08L67.77-21.08Q67.77-20.05 67.95-19.30L67.95-19.30Q68.42-20.17 68.64-21.09Q68.86-22.02 68.86-22.67L68.86-22.67Q68.86-23.45 68.58-23.45L68.58-23.45Q68.30-23.45 68.03-22.77Q67.77-22.08 67.77-21.08Z"></path></g></g></svg>