<svg width="40" height="40" viewBox="0 0 40 40" fill="white" xmlns="http://www.w3.org/2000/svg">
<path d="M19.3776 0.0614706C20.7023 -0.22692 22.668 0.543126 23.6497 1.45926C23.9955 1.78179 24.2844 2.26598 24.6891 2.50233C25.1765 2.78712 25.7946 2.92874 26.319 3.14321C27.1301 3.47488 27.9354 3.91676 28.6883 4.37264C33.1121 7.0518 35.712 11.2744 36.9947 16.3313C37.6013 16.6559 38.1337 17.0357 38.5885 17.5693C39.5436 18.6899 40.0873 20.2766 39.9885 21.7738C39.8888 23.2863 39.1587 24.7712 38.0524 25.7572C36.996 26.6976 35.6237 27.1652 34.2361 27.0572C32.7019 26.9356 31.3842 26.1996 30.384 24.9955C30.1718 24.7443 29.9849 24.4431 29.8283 24.1514C29.1088 22.7934 28.9387 21.1943 29.3553 19.706C29.8258 18.0098 30.9185 16.9703 32.3587 16.1352C32.0967 15.4985 31.8766 14.8537 31.5776 14.2325C30.5303 12.0567 28.914 10.0134 26.9426 8.68741C26.3159 8.26586 25.6503 7.93574 24.9765 7.60621C24.7725 8.14408 24.5632 8.65317 24.2368 9.12626C23.4132 10.3202 22.1387 11.0873 20.7479 11.3136C19.3359 11.5432 17.868 11.1257 16.7249 10.2461C15.5504 9.34219 14.8113 7.97873 14.6087 6.48192C14.4072 4.99426 14.7393 3.40758 15.6269 2.20762C16.561 0.944733 17.8791 0.271952 19.3776 0.0614706Z" fill="white"/>
<path d="M12.5771 3.5882L12.6152 3.59404C12.627 3.61699 12.6454 3.63742 12.6506 3.6628C12.6898 3.85422 12.4327 4.52544 12.3779 4.77279C12.3003 5.12314 12.2673 5.48914 12.2658 5.84815C12.2617 6.86282 12.5475 7.75862 12.9125 8.68556C10.1565 10.7595 8.73039 12.8726 7.49611 16.1078C8.40407 16.5452 9.18254 17.1497 9.78863 17.9847C10.6452 19.1645 10.9692 20.7247 10.7639 22.1774C10.5634 23.6675 9.79847 25.0128 8.63876 25.9152C7.32634 26.922 5.79562 27.0729 4.22451 26.8205C2.84454 26.4192 1.67284 25.6783 0.873095 24.4147C0.0879648 23.1662 -0.182522 21.643 0.122255 20.1859C0.478468 18.4324 1.46447 17.2832 2.87087 16.3219C3.05178 15.6317 3.1956 14.9341 3.41259 14.2543C4.91698 9.54052 8.34017 5.78473 12.5771 3.5882Z" fill="white"/>
<path d="M9.76061 28.1936C10.1392 28.3518 11.3355 29.8836 11.7884 30.2888C12.7576 31.1395 13.8349 31.848 14.99 32.3942C15.3156 31.6575 15.7143 30.989 16.2669 30.411C17.2375 29.3889 18.5644 28.8165 19.947 28.8235C21.392 28.8221 22.868 29.4922 23.8784 30.5592C24.8479 31.5968 25.3788 32.9926 25.3536 34.4378C25.338 36.1189 24.6064 37.517 23.4691 38.672C23.3199 38.7968 23.1706 38.9227 23.0141 39.0376C21.8724 39.8758 20.4233 40.165 19.0538 39.911C17.4192 39.6078 16.2945 38.666 15.3654 37.2803C15.0571 37.1984 14.7509 37.1079 14.4471 37.0089C11.1088 35.893 7.30853 32.7787 5.69836 29.4951C7.28577 29.4294 8.43676 29.1207 9.76061 28.1936Z" fill="white"/>
<path d="M30.019 28.0325C30.3934 28.1918 30.7377 28.4917 31.0899 28.7034C32.1879 29.3638 33.257 29.5103 34.5006 29.4503C33.2291 31.4693 31.7173 33.2449 29.8815 34.7301C29.1891 35.3222 28.3692 35.7931 27.5998 36.2657C27.984 34.2431 27.7969 32.7912 27.0546 30.8935C28.1368 30.0133 29.0884 29.0818 30.019 28.0325Z" fill="white"/>
<path d="M19.7232 18.539C21.0219 18.409 22.178 19.3917 22.3118 20.739C22.4456 22.0862 21.5068 23.2931 20.21 23.4409C18.9008 23.5901 17.725 22.6044 17.5899 21.2443C17.4549 19.8842 18.4123 18.6702 19.7232 18.539Z" fill="white"/>
</svg>
